<svg width="121" height="22" viewBox="0 0 121 22" fill="none" xmlns="http://www.w3.org/2000/svg"><path d="M31 16.78h-3.85l-.92 2.76H24.6l3.64-10.21h1.7l3.63 10.2h-1.65l-.93-2.75Zm-3.45-1.28h3.05l-1.5-4.48h-.05l-1.5 4.48ZM41.43 15.82c0 2.3-1.22 3.8-3.07 3.8a2.48 2.48 0 0 1-2.31-1.3h-.04V22h-1.5v-9.9h1.46v1.23h.02a2.6 2.6 0 0 1 2.34-1.32c1.87 0 3.1 1.5 3.1 3.8Zm-1.55 0c0-1.51-.77-2.5-1.94-2.5-1.16 0-1.93 1-1.93 2.5s.77 2.5 1.93 2.5c1.17 0 1.94-.98 1.94-2.5ZM49.51 15.82c0 2.3-1.22 3.8-3.06 3.8a2.48 2.48 0 0 1-2.31-1.3h-.04V22h-1.5v-9.9h1.45v1.23h.03a2.6 2.6 0 0 1 2.34-1.32c1.87 0 3.1 1.5 3.1 3.8Zm-1.55 0c0-1.51-.76-2.5-1.94-2.5-1.15 0-1.92 1-1.92 2.5s.77 2.5 1.92 2.5c1.18 0 1.94-.98 1.94-2.5ZM50.74 9.33h1.5v10.2h-1.5V9.34ZM60.1 17.35c-.2 1.35-1.5 2.28-3.17 2.28-2.13 0-3.46-1.45-3.46-3.78S54.8 12 56.87 12c2.03 0 3.31 1.42 3.31 3.67v.53h-5.19v.09c0 1.27.8 2.1 1.98 2.1.84 0 1.5-.4 1.7-1.04h1.43ZM55 15.13h3.67c-.03-1.14-.75-1.9-1.8-1.9-1.04 0-1.8.77-1.87 1.9ZM68.21 9.33c1.96 0 3.32 1.36 3.32 3.35 0 2-1.39 3.37-3.37 3.37H66v3.49h-1.57V9.33h3.78ZM66 14.72h1.8c1.36 0 2.13-.75 2.13-2.03 0-1.3-.77-2.03-2.13-2.03H66v4.06ZM72.08 15.82c0-2.35 1.36-3.82 3.49-3.82s3.48 1.47 3.48 3.82c0 2.34-1.35 3.81-3.48 3.81-2.14 0-3.49-1.47-3.49-3.81Zm5.43 0c0-1.61-.72-2.56-1.94-2.56-1.23 0-1.95.96-1.95 2.56s.72 2.55 1.95 2.55c1.22 0 1.94-.94 1.94-2.55ZM80.11 15.82c0-2.3 1.25-3.8 3.07-3.8 1.06 0 1.89.49 2.3 1.31h.04v-4h1.51v10.2h-1.47v-1.26h-.02a2.5 2.5 0 0 1-2.34 1.35c-1.84 0-3.09-1.5-3.09-3.8Zm1.54 0c0 1.52.77 2.5 1.94 2.5 1.16 0 1.94-1 1.94-2.5s-.78-2.5-1.94-2.5c-1.17 0-1.94.98-1.94 2.5ZM93.45 14.65c-.13-.78-.74-1.37-1.73-1.37-1.16 0-1.93.99-1.93 2.54 0 1.58.77 2.54 1.94 2.54.94 0 1.55-.48 1.72-1.34h1.45c-.17 1.56-1.4 2.61-3.18 2.61-2.1 0-3.47-1.45-3.47-3.81 0-2.32 1.37-3.82 3.45-3.82 1.89 0 3.06 1.2 3.19 2.65h-1.44ZM95.83 17.42c0-1.3.98-2.09 2.73-2.2l2-.1v-.57c0-.83-.53-1.3-1.45-1.3-.83 0-1.42.4-1.54 1.05h-1.41c.04-1.34 1.28-2.3 3-2.3 1.75 0 2.9.97 2.9 2.43v5.1h-1.44v-1.22h-.03a2.62 2.62 0 0 1-2.32 1.35c-1.44 0-2.44-.9-2.44-2.24Zm4.74-.67v-.57l-1.81.1c-.9.07-1.41.46-1.41 1.1 0 .65.53 1.07 1.34 1.07 1.05 0 1.88-.73 1.88-1.7ZM106.28 12c1.63 0 2.8.92 2.83 2.24h-1.42c-.06-.66-.62-1.06-1.45-1.06-.82 0-1.37.38-1.37.96 0 .44.37.74 1.13.93l1.23.3c1.49.35 2.04.9 2.04 2 0 1.34-1.25 2.26-3.05 2.26-1.73 0-2.9-.9-3-2.26h1.49c.1.72.67 1.1 1.58 1.1.9 0 1.47-.38 1.47-.97 0-.46-.28-.7-1.05-.9l-1.31-.33c-1.33-.33-2-1.01-2-2.05 0-1.31 1.17-2.21 2.88-2.21ZM112.55 10.33v1.76h1.4v1.21h-1.4v4.1c0 .64.28.94.9.94l.5-.03v1.2c-.18.04-.51.07-.85.07-1.48 0-2.06-.57-2.06-2.01V13.3h-1.07v-1.2h1.07v-1.77h1.51ZM118 12c1.63 0 2.8.92 2.83 2.24h-1.42c-.06-.66-.61-1.06-1.45-1.06-.81 0-1.36.38-1.36.96 0 .44.36.74 1.13.93l1.23.3c1.48.35 2.04.9 2.04 2 0 1.34-1.26 2.26-3.05 2.26-1.73 0-2.9-.9-3.01-2.26h1.5c.1.72.66 1.1 1.58 1.1.9 0 1.47-.38 1.47-.97 0-.46-.28-.7-1.05-.9l-1.32-.33c-1.32-.33-2-1.01-2-2.05 0-1.31 1.17-2.21 2.88-2.21ZM20.02 17.93a4.37 4.37 0 0 1-2.75 2.5c-.65.2-1.46.26-2.47.26H5.62c-1 0-1.82-.07-2.47-.26a4.26 4.26 0 0 1-2.75-2.5C0 16.9 0 15.73 0 15V5.7c0-.74 0-1.9.4-2.93A4.37 4.37 0 0 1 3.15.26C3.8.06 4.6 0 5.62 0h9.18c1 0 1.82.07 2.47.26a4.26 4.26 0 0 1 2.75 2.5c.4 1.03.4 2.2.4 2.93V15c0 .74 0 1.9-.4 2.93Zm-8.33-6.04c-.3-.32-.84-.53-1.48-.53-.63 0-1.17.2-1.48.53a.96.96 0 0 0-.27.6c-.05.48-.02.9.03 1.56.06.64.16 1.48.29 2.34.1.62.17.95.24 1.19.11.38.53.72 1.2.72.65 0 1.07-.34 1.18-.72.07-.24.15-.57.24-1.18.13-.87.24-1.71.29-2.35.05-.66.08-1.08.03-1.56a.96.96 0 0 0-.27-.6ZM8.54 8.98c0 .93.75 1.69 1.67 1.69.93 0 1.67-.76 1.67-1.7 0-.93-.74-1.69-1.67-1.69-.92 0-1.67.76-1.67 1.7Zm1.65-6.69a7.25 7.25 0 0 0-7.16 7.19 7.28 7.28 0 0 0 4.8 6.96.1.1 0 0 0 .13-.11l-.1-.75a.25.25 0 0 0-.15-.2 6.36 6.36 0 0 1 2.45-12.16 6.31 6.31 0 0 1 6.31 6.35c0 2.6-1.55 4.84-3.76 5.82a.25.25 0 0 0-.14.2l-.1.74a.1.1 0 0 0 .12.1c2.8-1 4.8-3.7 4.8-6.86a7.24 7.24 0 0 0-7.2-7.28Zm-.13 3.34a3.96 3.96 0 0 1 2.82 6.81.3.3 0 0 0-.1.24c.02.27.01.54 0 .83 0 .08.08.13.14.09a4.9 4.9 0 0 0-2.9-8.9 4.9 4.9 0 0 0-2.52 8.9c.07.04.16 0 .16-.09-.02-.3-.03-.56-.01-.83a.3.3 0 0 0-.1-.23 3.96 3.96 0 0 1 2.51-6.82ZM24.87 3.71c0-1.62.85-2.61 2.21-2.61 1.09 0 1.92.7 2.05 1.72h-.76c-.15-.6-.64-1-1.29-1-.88 0-1.43.73-1.43 1.89S26.2 5.6 27.1 5.6c.65 0 1.14-.36 1.28-.92h.76c-.14.98-.95 1.64-2.04 1.64-1.37 0-2.22-1-2.22-2.61ZM29.9 6.24a.7.7 0 0 1-.25-.05V5.5c.04.01.1.03.2.03.36 0 .49-.44.53-1.09l.13-2h2.56V6.2h-.73V3.06h-1.18l-.1 1.42c-.07 1.07-.34 1.76-1.16 1.76ZM34.36 7.54V6.9c.06.02.17.02.24.02.34 0 .54-.15.67-.53l.05-.18-1.34-3.77h.8l.93 2.98h.06l.92-2.98h.78l-1.38 3.91c-.32.92-.67 1.21-1.43 1.21-.06 0-.23 0-.3-.02ZM38.38 2.44h.73v3.13h1.28V2.44h.73v3.13h1.28V2.44h.73V6.2h-4.75V2.44ZM44.15 5.14c0-.68.5-1.07 1.38-1.13l1-.06v-.32c0-.4-.26-.62-.76-.62-.4 0-.7.15-.77.42h-.71c.07-.65.67-1.06 1.52-1.06.92 0 1.45.47 1.45 1.26V6.2h-.7v-.53h-.06c-.23.38-.63.59-1.12.59-.71 0-1.23-.44-1.23-1.12Zm2.38-.33V4.5l-.9.06c-.52.03-.75.2-.75.54s.3.54.69.54c.55 0 .96-.36.96-.83ZM48.47 6.2V2.44h.72v2.58h.06l1.7-2.58h.73V6.2h-.72V3.6h-.06l-1.7 2.6h-.73Zm.98-5.46c0 .37.23.69.6.69.38 0 .6-.32.6-.7h.62c0 .68-.5 1.18-1.22 1.18-.73 0-1.21-.5-1.21-1.17h.6ZM55.68 3.06H54.5V6.2h-.73V3.06H52.6v-.62h3.06v.62ZM59.61 5.18c-.16.68-.76 1.09-1.6 1.09-1.07 0-1.72-.74-1.72-1.94s.67-1.96 1.71-1.96c1.03 0 1.66.71 1.66 1.9v.25h-2.62v.04c.02.66.4 1.08.99 1.08.44 0 .74-.16.88-.46h.7Zm-2.57-1.2h1.87C58.9 3.37 58.54 3 58 3s-.92.39-.96.97ZM65.15 4.57h-1.7V6.2h-.74V2.44h.73v1.5h1.71v-1.5h.73V6.2h-.73V4.57ZM66.9 5.14c0-.68.5-1.07 1.38-1.13l1-.06v-.32c0-.4-.26-.62-.76-.62-.4 0-.69.15-.77.42h-.7c.07-.65.67-1.06 1.5-1.06.94 0 1.46.47 1.46 1.26V6.2h-.7v-.53h-.06c-.22.38-.63.59-1.11.59-.72 0-1.24-.44-1.24-1.12Zm2.38-.33V4.5l-.9.06c-.51.03-.74.2-.74.54s.28.54.68.54c.55 0 .96-.36.96-.83Z" fill="#000"/></svg>