<svg width="123" height="24" viewBox="0 0 123 24" fill="none" xmlns="http://www.w3.org/2000/svg"><path d="M2.38 9.88c-.76 0-1.38.61-1.38 1.37v1.5a1.37 1.37 0 1 0 2.75 0v-1.5c0-.76-.62-1.38-1.38-1.38Z" fill="#0066D9"/><path d="M21.63 9.88c-.77 0-1.38.61-1.38 1.37v1.5a1.37 1.37 0 1 0 2.75 0v-1.5c0-.76-.61-1.38-1.38-1.38Z" fill="#4285F4"/><path d="M7.13 14.38c-.76 0-1.38.61-1.38 1.37v1.5a1.37 1.37 0 1 0 2.75 0v-1.5c0-.76-.62-1.38-1.38-1.38ZM7.13 5.38c-.76 0-1.38.61-1.38 1.37v4.9a1.37 1.37 0 0 0 2.75 0v-4.9c0-.76-.62-1.38-1.38-1.38Z" fill="#EA4335"/><path d="M16.88 5.38c-.77 0-1.38.61-1.38 1.37v1.5a1.37 1.37 0 1 0 2.75 0v-1.5c0-.76-.61-1.38-1.38-1.38Z" fill="#34A853"/><path d="M12 1c-.76 0-1.38.61-1.38 1.38v1.5a1.37 1.37 0 1 0 2.76 0v-1.5C13.38 1.61 12.76 1 12 1ZM12 18.75c-.76 0-1.38.61-1.38 1.38v1.5a1.37 1.37 0 1 0 2.76 0v-1.5c0-.77-.62-1.38-1.38-1.38Z" fill="#FAB908"/><path d="M16.88 11c-.77 0-1.38.62-1.38 1.38v4.87a1.37 1.37 0 1 0 2.75 0v-4.88c0-.75-.61-1.37-1.38-1.37Z" fill="#34A853"/><path d="M13.38 8a1.37 1.37 0 1 0-2.76 0v8a1.37 1.37 0 1 0 2.76 0V8Z" fill="#FAB908"/><path d="M73.37 19.98V13.3H77v6.68h.88v-7.53h-5.4v7.53h.88Zm8.35.16a2.7 2.7 0 0 0 2.4-1.4c.23-.44.35-.92.35-1.45 0-.52-.12-1-.35-1.44a2.65 2.65 0 0 0-2.4-1.4 2.7 2.7 0 0 0-2.4 1.4c-.24.44-.36.92-.36 1.44 0 .53.12 1.01.35 1.45a2.65 2.65 0 0 0 2.4 1.4Zm0-.8a1.83 1.83 0 0 1-1.62-.96 2.2 2.2 0 0 1-.26-1.09c0-.4.09-.77.26-1.08a1.81 1.81 0 0 1 1.62-.96 1.8 1.8 0 0 1 1.6.96c.17.31.26.67.26 1.08 0 .42-.09.78-.26 1.09a1.83 1.83 0 0 1-1.6.95Zm3.96 2.23v-1.6h4.48v1.6H91v-2.4h-.8V14.6h-4.23v2.07c0 .54-.05 1.04-.17 1.51-.11.48-.26.8-.42.98h-.56v2.4h.85Zm3.65-2.4h-3c.16-.32.3-.69.39-1.1.09-.42.14-.86.14-1.31v-1.34h2.47v3.75Zm3.43.8v-2.7h.04l2.4 2.7h1.09v-.04l-2.52-2.77 2.41-2.5v-.05h-1.12l-2.26 2.43h-.04v-2.43h-.9v5.37h.9Zm5.7.17a2 2 0 0 0 1.73-.93h.04v.77h.85v-3.4c0-.66-.2-1.18-.62-1.56a2.45 2.45 0 0 0-1.72-.57c-.45 0-.86.09-1.23.27-.36.18-.65.43-.86.76l.67.5c.15-.23.35-.41.6-.54.25-.13.53-.2.83-.2.43 0 .78.13 1.06.37s.42.56.42.96v.33c-.15-.1-.36-.18-.63-.25-.28-.07-.58-.1-.9-.1-.65 0-1.2.16-1.62.48-.43.32-.64.76-.64 1.33a1.7 1.7 0 0 0 .96 1.55c.31.16.66.23 1.06.23Zm.08-.78c-.34 0-.63-.1-.85-.28a.88.88 0 0 1-.34-.71c0-.33.13-.59.37-.8.25-.2.62-.3 1.11-.3a2.82 2.82 0 0 1 1.4.38c0 .31-.08.6-.23.85-.15.26-.36.47-.62.62-.26.16-.54.24-.84.24Zm6.01.78a2.36 2.36 0 0 0 2.34-1.48l-.79-.33c-.13.32-.34.57-.61.74a1.77 1.77 0 0 1-2.52-.71c-.16-.31-.25-.67-.25-1.07s.09-.75.25-1.06c.17-.3.39-.55.66-.72.27-.17.57-.25.88-.25.37 0 .7.08.95.25.27.17.47.42.6.75l.8-.33c-.16-.45-.44-.81-.84-1.08-.4-.27-.88-.4-1.47-.4a2.56 2.56 0 0 0-2.37 1.39c-.22.43-.34.92-.34 1.45 0 .54.12 1.03.35 1.46a2.6 2.6 0 0 0 2.36 1.4Zm5.43-.16v-4.56h1.76v-.8h-4.39v.8h1.75v4.56h.88Zm4.27.16a2.01 2.01 0 0 0 1.73-.93h.05v.77h.85v-3.4c0-.66-.21-1.18-.63-1.56a2.45 2.45 0 0 0-1.72-.57c-.45 0-.85.09-1.22.27-.37.18-.66.43-.87.76l.67.5c.15-.23.35-.41.6-.54.26-.13.53-.2.83-.2.43 0 .78.13 1.06.37.29.24.43.56.43.96v.33c-.15-.1-.36-.18-.64-.25s-.58-.1-.9-.1c-.65 0-1.2.16-1.62.48-.43.32-.64.76-.64 1.33a1.7 1.7 0 0 0 .97 1.55c.3.16.66.23 1.05.23Zm.08-.78c-.34 0-.62-.1-.85-.28a.88.88 0 0 1-.34-.71c0-.33.13-.59.38-.8.25-.2.62-.3 1.1-.3.28 0 .54.04.79.1.24.08.45.17.62.28 0 .31-.08.6-.23.85-.16.26-.37.47-.63.62-.25.16-.54.24-.84.24Zm4.1.62 1.37-2.06 1.4 2.06h1.04l-1.91-2.73 1.87-2.64h-1.04l-1.34 2-1.39-2h-1l1.86 2.64-1.9 2.73h1.04ZM59.3 14.45c.67 0 1.2.3 1.46.62h.04v-.45h1.16v4.97c0 2.04-1.2 2.88-2.62 2.88-1.34 0-2.15-.9-2.46-1.64l1.06-.44c.19.45.65.98 1.39.98.9 0 1.47-.56 1.47-1.62v-.4h-.04c-.27.33-.8.63-1.45.63a2.74 2.74 0 0 1-2.65-2.76 2.75 2.75 0 0 1 2.65-2.77Zm-11.98.08a2.72 2.72 0 0 1 2.78 2.77c0 1.6-1.25 2.76-2.78 2.76a2.73 2.73 0 0 1-2.77-2.76c0-1.6 1.24-2.77 2.77-2.77Zm6.06 0a2.72 2.72 0 0 1 2.77 2.77c0 1.6-1.24 2.76-2.77 2.76a2.73 2.73 0 0 1-2.78-2.76c0-1.6 1.25-2.77 2.78-2.77Zm13.82 0c1.43 0 2.13 1.14 2.36 1.76l.12.31-3.7 1.53c.3.55.73.84 1.35.84.62 0 1.04-.3 1.36-.77l.94.63a2.77 2.77 0 0 1-2.3 1.23 2.7 2.7 0 0 1-2.74-2.76c0-1.65 1.18-2.77 2.6-2.77Zm-27.04-3.1c1.3 0 2.24.51 2.94 1.18l-.83.83a3.08 3.08 0 0 0-5.19 2.27 3.08 3.08 0 0 0 3.08 3.12c1.12 0 1.76-.45 2.17-.86.33-.34.55-.82.64-1.47h-2.81v-1.17h3.95c.04.2.07.45.07.73 0 .89-.24 1.97-1.02 2.74a3.95 3.95 0 0 1-3 1.2 4.35 4.35 0 0 1-4.36-4.28c0-2.37 1.99-4.3 4.36-4.3Zm23.84.32v8.12h-1.21v-8.12h1.2Zm-16.68 3.86c-.84 0-1.56.68-1.56 1.68 0 .99.73 1.68 1.56 1.68.84 0 1.57-.7 1.57-1.68 0-1-.73-1.68-1.57-1.68Zm6.06 0c-.85 0-1.57.68-1.57 1.68 0 .99.73 1.68 1.57 1.68.83 0 1.56-.7 1.56-1.68 0-1-.72-1.68-1.56-1.68Zm6.03-.07c-.83 0-1.54.71-1.54 1.68s.7 1.67 1.54 1.67c.83 0 1.48-.7 1.47-1.67 0-.97-.64-1.68-1.47-1.68Zm7.83.06c-.62 0-1.48.54-1.45 1.6l2.47-1.02c-.13-.35-.54-.58-1.02-.58Z" fill="#3C4043"/><path d="M32.34 7.82c.7 0 1.25-.18 1.67-.55.42-.36.67-.88.75-1.56h-.85c-.08.53-.24.9-.5 1.1-.24.22-.6.32-1.07.32-.52 0-.92-.2-1.2-.6a2.8 2.8 0 0 1-.44-1.66v-.61c0-.74.15-1.3.46-1.7.3-.4.72-.6 1.26-.6.44 0 .78.12 1.02.35.24.23.4.6.47 1.1h.85c-.07-.67-.3-1.19-.71-1.57a2.3 2.3 0 0 0-1.63-.56 2.37 2.37 0 0 0-2.25 1.4c-.21.44-.32.96-.32 1.55v.62c0 .9.23 1.62.68 2.16.46.54 1.06.81 1.81.81Zm3.57-.09c.47-.01.82-.2 1.04-.54.22-.35.36-.94.41-1.75l.1-1.77h1.6v4.06h.82V3h-3.2l-.08 2.03c-.04.74-.1 1.24-.22 1.52-.12.27-.3.42-.57.45l-.23.02v.71h.33Zm5.7 1.92c.65 0 1.12-.4 1.41-1.19L44.92 3h-.86l-1.1 3.55L41.76 3h-.88l1.69 4.68-.18.48c-.1.3-.23.5-.38.61-.15.11-.37.17-.64.17l-.22-.02v.66l.3.05.16.02Zm10.23-1.92V3h-.82v4.07H49.3V3h-.8v4.07h-1.74V3h-.81v4.73h5.9Zm2.96.1c.52 0 .97-.2 1.35-.6.03.24.06.41.11.5h.85v-.07c-.11-.25-.17-.6-.17-1.03V4.45a1.48 1.48 0 0 0-.48-1.13c-.3-.27-.73-.4-1.28-.4-.34 0-.66.06-.95.18-.28.13-.51.3-.68.53-.17.22-.25.45-.25.68h.81c0-.2.1-.38.3-.53.2-.14.43-.22.72-.22.33 0 .58.09.75.26.17.16.25.39.25.67v.37h-.78c-.68 0-1.21.14-1.59.41-.37.28-.56.66-.56 1.15 0 .4.15.74.45 1 .3.27.68.4 1.15.4Zm.12-.71a.98.98 0 0 1-.65-.22.74.74 0 0 1-.26-.6c0-.57.5-.86 1.49-.86h.63v.97a1.42 1.42 0 0 1-1.22.7Zm5.45.61V3.66h1.58V3H58v.66h1.56v4.07h.8Zm4.67 0c.55 0 .98-.14 1.3-.43.32-.28.48-.66.48-1.13 0-.47-.16-.84-.47-1.12a1.9 1.9 0 0 0-1.27-.42h-1.23V3h-.81v4.73h2Zm.01-.66h-1.2V5.3h1.23c.3 0 .52.1.68.26a.9.9 0 0 1 .25.65c0 .27-.09.48-.25.64a.99.99 0 0 1-.7.23ZM32.14 20c.52 0 .92-.1 1.2-.32.3-.22.44-.53.44-.94a.98.98 0 0 0-.24-.66c-.15-.18-.36-.3-.61-.37.23-.09.4-.21.52-.38a.94.94 0 0 0 .18-.55c0-.4-.16-.7-.46-.91-.3-.21-.73-.31-1.3-.31h-1.65V20h1.92Zm-.26-2.56h-.93v-1.27h.99c.64.02.96.23.96.65 0 .41-.34.62-1.02.62Zm.27 1.95h-1.2v-1.34h1.17c.62 0 .93.22.93.66a.6.6 0 0 1-.23.5c-.15.12-.37.18-.67.18Z" fill="#5F6368"/></svg>