<svg width="110" height="24" viewBox="0 0 110 24" fill="none" xmlns="http://www.w3.org/2000/svg"><path d="M19.38.65H6.9c-2.87 0-5.2 2.31-5.2 5.16v12.38a5.18 5.18 0 0 0 5.2 5.16h12.5c2.87 0 5.2-2.31 5.2-5.16V5.81a5.18 5.18 0 0 0-5.2-5.16Z" fill="#fff" stroke="#DDD"/><path d="M7.97 5.23a8.71 8.71 0 0 1 4.39-1.66v2.6a6.1 6.1 0 0 0-5.03 4.23 5.99 5.99 0 0 0 2.43 6.76 6.1 6.1 0 0 0 9.26-3.52 6 6 0 0 0 .07-2.66l2.2-1.75V9.2a8.56 8.56 0 0 1-2.67 9.62 8.71 8.71 0 0 1-13.65-3.78 8.56 8.56 0 0 1 3-9.82Z" fill="#FCCA00"/><path d="m19.68 6.44.01.02-1.48 2.33a6.14 6.14 0 0 0-2.1-1.91v5.3a2.96 2.96 0 0 1-2.98 2.95 2.96 2.96 0 0 1-2.98-2.95 2.96 2.96 0 0 1 4.64-2.44V3.67a8.77 8.77 0 0 1 4.9 2.77Z" fill="#FC3F1D"/><path d="M30.23 3.73h3.93V8.9h-.7V4.35h-2.54V8.9h-.69V3.73ZM36.84 8.98c-.25 0-.5-.05-.72-.13a1.68 1.68 0 0 1-.58-.38 1.83 1.83 0 0 1-.38-.61c-.1-.24-.14-.52-.14-.83 0-.31.05-.59.14-.83.1-.24.22-.45.38-.61.16-.16.36-.29.58-.38.23-.08.47-.13.72-.13a2 2 0 0 1 .73.13 1.61 1.61 0 0 1 .96 1c.1.23.15.5.15.82 0 .31-.05.59-.15.83a1.61 1.61 0 0 1-.96.99 2 2 0 0 1-.73.13Zm0-.57c.17 0 .33-.03.47-.08.15-.06.27-.14.38-.26.1-.11.19-.26.25-.43.05-.17.08-.38.08-.61 0-.24-.03-.44-.08-.62a1.11 1.11 0 0 0-.25-.42.95.95 0 0 0-.38-.26c-.14-.05-.3-.08-.47-.08-.17 0-.32.03-.46.08A.96.96 0 0 0 36 6c-.1.1-.19.25-.25.42-.05.18-.08.38-.08.62 0 .23.03.44.08.61a1.08 1.08 0 0 0 1.08.77ZM41.1 8.98c-.3 0-.56-.05-.8-.13-.23-.1-.43-.22-.6-.39-.16-.16-.29-.37-.38-.6a2.4 2.4 0 0 1-.13-.83c0-.3.05-.58.13-.82.1-.24.22-.44.39-.6.16-.17.37-.3.6-.39a2.43 2.43 0 0 1 1.45-.06c.2.05.36.12.49.22v.57a2.18 2.18 0 0 0-1.11-.3c-.45 0-.78.11-.99.34-.2.22-.3.57-.3 1.04 0 .46.1.81.3 1.04.2.22.51.34.94.34a2.32 2.32 0 0 0 1.16-.3v.57a2.15 2.15 0 0 1-1.16.3ZM43.4 7.74c.06-.24.1-.58.13-1 .02-.41.03-.94.03-1.58h2.54V8.9h-.65V5.7h-1.29c0 .51-.02.97-.05 1.37-.02.4-.08.74-.17 1.01-.08.28-.2.49-.37.63a.95.95 0 0 1-.65.2h-.12v-.63a.5.5 0 0 0 .1.01c.24 0 .4-.18.5-.55ZM49 8.86c-.09.23-.18.43-.28.6-.1.17-.2.31-.33.43-.12.12-.25.21-.4.27a1.57 1.57 0 0 1-1.01.01v-.6a.96.96 0 0 0 .47.12c.18 0 .32-.05.44-.13.12-.09.23-.22.34-.4l-1.54-4h.7l1.2 3.16 1.2-3.16h.62L49 8.86ZM55.77 8.9h-4.72V5.17h.64v3.2h1.4v-3.2h.64v3.2h1.4v-3.2h.64V8.9ZM59.03 8.19c-.04.09-.1.18-.16.27a1.26 1.26 0 0 1-.62.45c-.14.04-.3.07-.48.07-.34 0-.62-.1-.83-.28-.2-.2-.31-.47-.31-.83 0-.4.14-.7.43-.9.3-.2.7-.29 1.24-.29h.7v-.31c0-.26-.06-.45-.2-.56-.14-.1-.37-.16-.7-.16-.23 0-.45.04-.66.11-.21.08-.4.16-.56.26v-.57a2.85 2.85 0 0 1 1.3-.37c.48 0 .85.1 1.1.3.24.2.37.5.37.9v2.34a22 22 0 0 0 .03.29h-.58a3.27 3.27 0 0 1-.06-.61v-.11Zm-1.13.22a1 1 0 0 0 .51-.13c.15-.08.26-.17.35-.28.08-.1.15-.21.19-.32.04-.1.05-.18.05-.22V7.2h-.64c-.38 0-.66.05-.83.16a.53.53 0 0 0-.26.49c0 .16.05.3.15.4.1.11.27.17.48.17ZM62.32 4.66c-.2 0-.36-.03-.5-.07a1.12 1.12 0 0 1-.36-.21.96.96 0 0 1-.22-.31 1.13 1.13 0 0 1-.06-.4h.64c0 .19.04.32.13.4.1.09.22.13.37.13.16 0 .28-.04.37-.13.09-.08.13-.21.13-.4h.64c0 .28-.1.51-.28.7-.19.2-.47.29-.86.29ZM61.3 8.04l2.01-2.88h.65V8.9h-.64V6.03L61.31 8.9h-.66V5.16h.65v2.88ZM66.53 5.7v3.2h-.64V5.7H64.7v-.54h3.04v.54h-1.2ZM71.39 8.59a2.03 2.03 0 0 1-.86.34c-.15.03-.3.05-.48.05-.63 0-1.12-.17-1.45-.52-.33-.34-.5-.82-.5-1.43 0-.3.05-.58.14-.82.09-.24.22-.44.38-.6.16-.17.35-.3.56-.39.22-.09.46-.14.72-.14.27 0 .51.05.73.14.21.1.39.23.52.4.14.18.24.4.29.67.05.26.05.56 0 .91h-2.67c.02.4.15.7.36.91.22.2.55.3.98.3.3 0 .54-.04.75-.13.21-.08.38-.17.53-.26v.57Zm-1.5-2.94c-.28 0-.52.08-.72.25-.2.17-.33.42-.38.77h2.03c.02-.35-.06-.6-.24-.77a.98.98 0 0 0-.7-.25ZM76.37 7.24h-1.83v1.67h-.64V5.16h.64V6.7h1.83V5.16H77V8.9h-.64V7.24ZM80.28 8.19c-.05.09-.1.18-.17.27a1.27 1.27 0 0 1-.62.45c-.14.04-.3.07-.48.07-.34 0-.62-.1-.82-.28-.21-.2-.32-.47-.32-.83 0-.4.15-.7.43-.9.3-.2.7-.29 1.24-.29h.7v-.31c0-.26-.06-.45-.2-.56-.13-.1-.37-.16-.7-.16-.23 0-.45.04-.66.11-.2.08-.4.16-.56.26v-.57a2.85 2.85 0 0 1 1.31-.37c.48 0 .84.1 1.09.3.25.2.37.5.37.9v2.34a22.14 22.14 0 0 0 .04.29h-.59a3.31 3.31 0 0 1-.06-.61v-.11Zm-1.13.22a1 1 0 0 0 .5-.13c.15-.08.26-.17.35-.28.09-.1.15-.21.19-.32.04-.1.06-.18.06-.22V7.2h-.64c-.39 0-.67.05-.84.16a.53.53 0 0 0-.26.49c0 .16.05.3.16.4.1.11.26.17.48.17ZM33.74 19.91h1.42v-8.13H33.1c-2.09 0-3.19 1.07-3.19 2.63 0 1.26.6 2 1.68 2.75l-1.87 2.75h1.55l2.08-3.08-.72-.47c-.88-.59-1.3-1.05-1.3-2.03 0-.86.61-1.45 1.78-1.45h.64v7.03Zm18.75-.4v-1.13a3.6 3.6 0 0 1-1.86.55c-1.02 0-1.41-.48-1.47-1.46h3.38v-.74c0-2.05-.9-2.82-2.3-2.82-1.72 0-2.53 1.3-2.53 3.08 0 2.04 1.01 3.04 2.8 3.04.9 0 1.56-.24 1.98-.52Zm8.77.52c.65 0 1.11-.12 1.45-.37v-1.13c-.35.25-.77.4-1.36.4-1 0-1.42-.77-1.42-1.99 0-1.27.5-1.93 1.43-1.93.54 0 1.07.19 1.35.36V14.2a3.3 3.3 0 0 0-1.5-.28c-1.8 0-2.73 1.28-2.73 3.06 0 1.97.9 3.06 2.78 3.06Zm-21.64-6v2.33h-1.87v-2.33h-1.4v5.88h1.4v-2.46h1.87v2.46h1.4v-5.88h-1.4Zm7.74 4.78h-.62v-4.78h-4.1v.5c0 1.44-.09 3.3-.58 4.28h-.44v2.44h1.3v-1.34h3.15v1.34h1.3v-2.44Zm9.6 1.1h1.6l-2.25-3.17 1.98-2.71h-1.42l-1.98 2.71v-2.71h-1.4v5.88h1.4v-2.89l2.08 2.89Zm-6.75-4.9c.7 0 .9.57.9 1.31v.12h-1.95c.03-.94.38-1.43 1.05-1.43Zm-4.87 3.8h-1.99c.4-.89.5-2.49.5-3.5v-.18h1.49v3.68ZM68.86 19.91h1.23l1.68-6.14v6.14h1.4v-8.13h-1.91L69.6 17.8l-1.66-6.02h-1.93v8.13h1.17v-6.14l1.67 6.14ZM75.1 21.72c1.31 0 1.8-.92 2.2-2.13l1.85-5.56H77.8l-1.31 4.42-1.31-4.42H73.7l2.04 6.14a.8.8 0 0 1-.76.45.89.89 0 0 1-.64-.23v1.13s.21.2.77.2ZM81.2 18.93c-.72 0-1.43-.26-1.8-.54v1.13c.26.23.95.5 1.96.5 1.5 0 2.29-.66 2.29-1.84 0-.7-.44-1.16-1.21-1.32.73-.24 1.03-.75 1.03-1.4 0-1-.79-1.55-2.06-1.55-.92 0-1.52.28-1.87.5v1.13c.38-.25.9-.53 1.67-.53.52 0 .85.25.85.68 0 .45-.29.7-.86.7h-.89v1.05h.89c.72 0 1 .21 1 .73 0 .47-.34.76-1 .76ZM84.6 14.03v5.88h2.13c1.38 0 2.36-.7 2.36-2.08 0-1.31-.87-2-2.34-2H86v-1.8h-1.4Zm5 0v5.88h1.41v-5.88h-1.4Zm-2.95 4.78H86v-1.88h.68c.6 0 .96.27.96.95 0 .67-.4.93-1 .93ZM95.67 19.9h1.59l-2.25-3.16 1.98-2.71h-1.42l-1.98 2.71v-2.71h-1.4v5.88h1.4v-2.89l2.08 2.89ZM101.98 19.51v-1.13a3.6 3.6 0 0 1-1.85.55c-1.03 0-1.42-.48-1.47-1.46h3.38v-.74c0-2.05-.9-2.82-2.31-2.82-1.71 0-2.53 1.3-2.53 3.08 0 2.04 1.02 3.04 2.81 3.04.9 0 1.56-.24 1.97-.52Zm-2.27-4.5c.7 0 .9.57.9 1.31v.12h-1.95c.03-.94.37-1.43 1.05-1.43Z" fill="#000"/></svg>